<?xml version="1.0" encoding="utf-8"?>
<!-- Generator: Adobe Illustrator 16.0.0, SVG Export Plug-In . SVG Version: 6.00 Build 0)  -->
<!DOCTYPE svg PUBLIC "-//W3C//DTD SVG 1.1//EN" "http://www.w3.org/Graphics/SVG/1.1/DTD/svg11.dtd">
<svg version="1.1" id="Calque_1" xmlns="http://www.w3.org/2000/svg" xmlns:xlink="http://www.w3.org/1999/xlink" x="0px" y="0px"
	 width="305.641px" height="79.693px" viewBox="0 0 305.641 79.693" enable-background="new 0 0 305.641 79.693"
	 xml:space="preserve">
<rect fill-opacity="0" width="305.641" height="79.693"/>
<rect x="1072.573" y="-4953.242" fill="#F5F5F5" width="1319.479" height="147.015"/>
<path fill="none" d="M178.866,14.253c-0.07-0.031-0.271-0.08-0.812-0.08h-0.979v1.33h0.944c0.291,0,0.537-0.024,0.731-0.074
	c0.168-0.042,0.295-0.113,0.377-0.208c0.076-0.088,0.115-0.221,0.115-0.394c0-0.137-0.031-0.25-0.104-0.352
	C179.079,14.377,178.987,14.303,178.866,14.253z"/>
<path fill="#E944A1" d="M66.92,0.043H34.692v60.9h32.226h31.777v-60.9H66.92z M56.61,49.554h-8.724V35.045h8.724V49.554z
	 M56.61,26.324h-8.724V11.816h8.724V26.324z M85.647,49.625h-8.721v0.03L65.479,33.383V18.737l11.447,16.275v-23.13h8.721V49.625z"
	/>
<text transform="matrix(1 0 0 1 111.1968 30.7163)" fill="#E944A1" font-family="'AlNile-Bold'" font-size="41.1776">8</text>
<g>
	<text transform="matrix(1 0 0 1 135.0415 30.7163)" fill="#E944A1" font-family="'AlNile-Bold'" font-size="41.1776">2</text>
</g>
<text transform="matrix(1 0 0 1 160.063 30.2671)" fill="#E944A1" font-family="'AlNile-Bold'" font-size="41.1776">9</text>
<text transform="matrix(1 0 0 1 112.2007 51.0962)" fill="#E944A1" font-family="'GillSans-Light'" font-size="15">Design with Compassion</text>
</svg>
