<?xml version="1.0" encoding="utf-8"?>
<!-- Generator: Adobe Illustrator 16.0.0, SVG Export Plug-In . SVG Version: 6.00 Build 0)  -->
<!DOCTYPE svg PUBLIC "-//W3C//DTD SVG 1.1//EN" "http://www.w3.org/Graphics/SVG/1.1/DTD/svg11.dtd">
<svg version="1.1" id="Calque_1" xmlns="http://www.w3.org/2000/svg" xmlns:xlink="http://www.w3.org/1999/xlink" x="0px" y="0px"
	 width="25.667px" height="25.167px" viewBox="-10.875 -1.375 25.667 25.167" enable-background="new -10.875 -1.375 25.667 25.167"
	 xml:space="preserve">
<g>
	<path fill="#A1A1A1" d="M1.921-1.387c6.878,0,12.46,5.579,12.46,12.461c0,6.883-5.582,12.463-12.46,12.463
		c-6.886,0-12.464-5.58-12.464-12.463C-10.542,4.192-4.964-1.387,1.921-1.387z"/>
</g>
<g>
	<polygon fill="none" points="0.238,15.707 3.625,15.707 1.955,9.469 	"/>
	<polygon fill="none" points="5.604,6.446 2.581,6.446 4.139,12.262 	"/>
	<polygon fill="none" points="1.343,6.446 -1.761,6.446 -0.269,12.314 	"/>
	<polygon fill="#FFFFFF" points="1.955,9.469 3.625,15.707 4.706,15.707 7.035,6.446 5.604,6.446 4.139,12.262 2.581,6.446 
		1.343,6.446 -0.269,12.314 -1.761,6.446 -3.196,6.446 -0.839,15.707 0.238,15.707 	"/>
</g>
</svg>
