<?xml version="1.0" encoding="utf-8"?>
<!-- Generator: Adobe Illustrator 16.0.0, SVG Export Plug-In . SVG Version: 6.00 Build 0)  -->
<!DOCTYPE svg PUBLIC "-//W3C//DTD SVG 1.1//EN" "http://www.w3.org/Graphics/SVG/1.1/DTD/svg11.dtd">
<svg version="1.1" id="Calque_1" xmlns="http://www.w3.org/2000/svg" xmlns:xlink="http://www.w3.org/1999/xlink" x="0px" y="0px"
	 width="27.826px" height="27.826px" viewBox="0 0 27.826 27.826" enable-background="new 0 0 27.826 27.826" xml:space="preserve">
<rect x="1072.573" y="-4953.242" fill="#F5F5F5" width="1319.48" height="147.015"/>
<rect x="-50.296" y="-2251.633" fill="#F5F5F5" width="1319.479" height="147.015"/>
<g>
	<path fill="#B88DFF" d="M9.284,25.169c-1.383,0-3.08-0.979-3.771-2.178l-4.75-8.229c-0.693-1.198-0.693-3.158,0-4.355l4.75-8.229
		C6.204,0.981,7.903,0,9.284,0h9.502c1.382,0,3.08,0.979,3.771,2.178l4.75,8.229c0.692,1.197,0.692,3.158,0,4.355l-4.75,8.229
		c-0.69,1.197-2.39,2.178-3.771,2.178H9.284z"/>
	<text transform="matrix(1 0 0 1 8.4131 17.6631)" fill="#FFFFFF" font-family="'Century'" font-size="21">o</text>
</g>
</svg>
