<?xml version="1.0" encoding="utf-8"?>
<!-- Generator: Adobe Illustrator 16.0.0, SVG Export Plug-In . SVG Version: 6.00 Build 0)  -->
<!DOCTYPE svg PUBLIC "-//W3C//DTD SVG 1.1//EN" "http://www.w3.org/Graphics/SVG/1.1/DTD/svg11.dtd">
<svg version="1.1" id="Calque_1" xmlns="http://www.w3.org/2000/svg" xmlns:xlink="http://www.w3.org/1999/xlink" x="0px" y="0px"
	 width="137.282px" height="44.386px" viewBox="0 0 137.282 44.386" enable-background="new 0 0 137.282 44.386"
	 xml:space="preserve">
<rect y="-6" fill-opacity="0" width="137.282" height="47.386"/>
<rect x="1072.573" y="-4953.242" fill="#F5F5F5" width="1319.479" height="147.015"/>
<path fill="none" d="M178.866,14.253c-0.07-0.031-0.271-0.08-0.812-0.08h-0.979v1.33h0.944c0.291,0,0.537-0.024,0.731-0.074
	c0.168-0.042,0.295-0.113,0.377-0.208c0.076-0.088,0.115-0.221,0.115-0.394c0-0.137-0.031-0.25-0.103-0.352
	C179.079,14.377,178.987,14.303,178.866,14.253z"/>
<path fill="#E944A1" d="M24.935,0.043H6.282v35.248h18.652h18.392V0.043H24.935z M18.968,28.699h-5.049v-8.397h5.049V28.699z
	 M18.968,15.254h-5.049V6.857h5.049V15.254z M35.774,28.74h-5.048v0.018l-6.625-9.418v-8.477l6.625,9.419V6.895h5.048V28.74z"/>
<text transform="matrix(1 0 0 1 50.7827 18.1987)" fill="#FFFFFF" font-family="'AlNile-Bold'" font-size="21">8</text>
<g>
	<text transform="matrix(1 0 0 1 62.9434 18.1987)" fill="#FFFFFF" font-family="'AlNile-Bold'" font-size="21">2</text>
</g>
<text transform="matrix(1 0 0 1 75.7046 17.9702)" fill="#FFFFFF" font-family="'AlNile-Bold'" font-size="21">9</text>
<text transform="matrix(1 0 0 1 50.7827 30.0073)" fill="#EFEFEF" font-family="'GillSans-Italic'" font-size="9">Design with Compassion</text>
</svg>
