<?xml version="1.0" encoding="utf-8"?>
<!-- Generator: Adobe Illustrator 16.0.0, SVG Export Plug-In . SVG Version: 6.00 Build 0)  -->
<!DOCTYPE svg PUBLIC "-//W3C//DTD SVG 1.1//EN" "http://www.w3.org/Graphics/SVG/1.1/DTD/svg11.dtd">
<svg version="1.1" id="Calque_1" xmlns="http://www.w3.org/2000/svg" xmlns:xlink="http://www.w3.org/1999/xlink" x="0px" y="0px"
	 width="67.486px" height="67.939px" viewBox="0 0 67.486 67.939" enable-background="new 0 0 67.486 67.939" xml:space="preserve">
<g>
	<path fill="#FFFFFF" d="M29.482,22.487c-1.751-1.341-3.82-2.122-9.194-2.122h-9.318v31.28h5.676V40.642h4.333
		c4.835,0,6.813-0.866,8.769-2.467c1.933-1.569,3.229-4.703,3.229-7.802C32.975,27.217,31.668,24.269,29.482,22.487z M25.229,34.879
		c-1.431,0.767-3.021,0.869-4.382,0.869h-4.2V25.26h3.941c1.521,0,3.126,0.107,4.559,0.871c1.53,0.735,2.417,2.319,2.417,4.331
		C27.567,32.441,26.668,34.132,25.229,34.879z"/>
	<path fill="#FFFFFF" d="M49.127,34.023l-0.687-0.281c-5.015-2.083-6.699-2.782-6.655-5.323c0-2.288,1.862-4.027,4.334-4.027
		c3.342,0,4.046,2.546,4.312,3.948h5.63c-0.433-6.323-5.465-8.579-9.722-8.579c-4.957,0-10.224,3.191-10.224,9.096
		c0,5.791,5.43,7.728,7.75,8.556l0.944,0.372c3.918,1.545,6.075,2.397,6.075,5.194c0,2.554-2.142,4.633-4.768,4.633
		c-0.457,0-4.436-0.146-4.874-5.148h-5.649c0.055,2.857,0.969,5.26,2.65,6.954c1.842,1.856,4.594,2.831,7.96,2.831
		c7.603,0,10.312-4.945,10.312-9.573C56.519,38.141,53.69,36.001,49.127,34.023z"/>
</g>
<g>
	<circle fill="#66CC7A" cx="33.743" cy="33.97" r="33.764"/>
</g>
<g>
	<polygon fill="none" points="29.188,46.519 38.365,46.519 33.834,29.621 	"/>
	<polygon fill="none" points="43.721,21.423 35.535,21.423 39.759,37.184 	"/>
	<polygon fill="none" points="32.187,21.423 23.769,21.423 27.816,37.327 	"/>
	<polygon fill="#FFFFFF" points="33.834,29.621 38.365,46.519 41.298,46.519 47.603,21.423 43.721,21.423 39.759,37.184 
		35.535,21.423 32.187,21.423 27.816,37.327 23.769,21.423 19.884,21.423 26.269,46.519 29.188,46.519 	"/>
</g>
</svg>
